<?xml version="1.0" encoding="utf-8" standalone="no"?>
<!DOCTYPE svg PUBLIC "-//W3C//DTD SVG 1.1//EN"
  "http://www.w3.org/Graphics/SVG/1.1/DTD/svg11.dtd">
<!-- Created with matplotlib (https://matplotlib.org/) -->
<svg height="720pt" version="1.1" viewBox="0 0 1080 720" width="1080pt" xmlns="http://www.w3.org/2000/svg" xmlns:xlink="http://www.w3.org/1999/xlink">
 <defs>
  <style type="text/css">
*{stroke-linecap:butt;stroke-linejoin:round;}
  </style>
 </defs>
 <g id="figure_1">
  <g id="patch_1">
   <path d="M 0 720 
L 1080 720 
L 1080 0 
L 0 0 
z
" style="fill:#ffffff;"/>
  </g>
  <g id="axes_1">
   <g id="patch_2">
    <path d="M 135 640.8 
L 972 640.8 
L 972 86.4 
L 135 86.4 
z
" style="fill:#ffffff;"/>
   </g>
   <g id="PolyCollection_1">
    <path clip-path="url(#pcfbad868ec)" d="M 169.240909 158.665679 
L 169.240909 179.971626 
L 176.85 179.971626 
L 176.85 158.665679 
z
" style="fill:#ff0000;fill-opacity:0.75;stroke:#ff0000;stroke-opacity:0.75;stroke-width:0.5;"/>
    <path clip-path="url(#pcfbad868ec)" d="M 184.459091 179.730881 
L 184.459091 167.452878 
L 192.068182 167.452878 
L 192.068182 179.730881 
z
" style="fill:#008000;fill-opacity:0.75;stroke:#008000;stroke-opacity:0.75;stroke-width:0.5;"/>
    <path clip-path="url(#pcfbad868ec)" d="M 199.677273 167.452878 
L 199.677273 129.896632 
L 207.286364 129.896632 
L 207.286364 167.452878 
z
" style="fill:#008000;fill-opacity:0.75;stroke:#008000;stroke-opacity:0.75;stroke-width:0.5;"/>
    <path clip-path="url(#pcfbad868ec)" d="M 214.895455 130.859613 
L 214.895455 123.396513 
L 222.504545 123.396513 
L 222.504545 130.859613 
z
" style="fill:#008000;fill-opacity:0.75;stroke:#008000;stroke-opacity:0.75;stroke-width:0.5;"/>
    <path clip-path="url(#pcfbad868ec)" d="M 230.113636 122.674278 
L 230.113636 122.915023 
L 237.722727 122.915023 
L 237.722727 122.674278 
z
" style="fill:#ff0000;fill-opacity:0.75;stroke:#ff0000;stroke-opacity:0.75;stroke-width:0.5;"/>
    <path clip-path="url(#pcfbad868ec)" d="M 245.331818 122.674278 
L 245.331818 248.343253 
L 252.940909 248.343253 
L 252.940909 122.674278 
z
" style="fill:#ff0000;fill-opacity:0.75;stroke:#ff0000;stroke-opacity:0.75;stroke-width:0.5;"/>
    <path clip-path="url(#pcfbad868ec)" d="M 260.55 248.343253 
L 260.55 219.694578 
L 268.159091 219.694578 
L 268.159091 248.343253 
z
" style="fill:#008000;fill-opacity:0.75;stroke:#008000;stroke-opacity:0.75;stroke-width:0.5;"/>
    <path clip-path="url(#pcfbad868ec)" d="M 275.768182 219.453833 
L 275.768182 198.509004 
L 283.377273 198.509004 
L 283.377273 219.453833 
z
" style="fill:#008000;fill-opacity:0.75;stroke:#008000;stroke-opacity:0.75;stroke-width:0.5;"/>
    <path clip-path="url(#pcfbad868ec)" d="M 290.986364 198.749749 
L 290.986364 173.230762 
L 298.595455 173.230762 
L 298.595455 198.749749 
z
" style="fill:#008000;fill-opacity:0.75;stroke:#008000;stroke-opacity:0.75;stroke-width:0.5;"/>
    <path clip-path="url(#pcfbad868ec)" d="M 306.204545 173.230762 
L 306.204545 160.712013 
L 313.813636 160.712013 
L 313.813636 173.230762 
z
" style="fill:#008000;fill-opacity:0.75;stroke:#008000;stroke-opacity:0.75;stroke-width:0.5;"/>
    <path clip-path="url(#pcfbad868ec)" d="M 321.422727 160.471268 
L 321.422727 181.897588 
L 329.031818 181.897588 
L 329.031818 160.471268 
z
" style="fill:#ff0000;fill-opacity:0.75;stroke:#ff0000;stroke-opacity:0.75;stroke-width:0.5;"/>
    <path clip-path="url(#pcfbad868ec)" d="M 336.640909 181.897588 
L 336.640909 191.888512 
L 344.25 191.888512 
L 344.25 181.897588 
z
" style="fill:#ff0000;fill-opacity:0.75;stroke:#ff0000;stroke-opacity:0.75;stroke-width:0.5;"/>
    <path clip-path="url(#pcfbad868ec)" d="M 351.859091 188.51808 
L 351.859091 185.147647 
L 359.468182 185.147647 
L 359.468182 188.51808 
z
" style="fill:#008000;fill-opacity:0.75;stroke:#008000;stroke-opacity:0.75;stroke-width:0.5;"/>
    <path clip-path="url(#pcfbad868ec)" d="M 367.077273 184.064294 
L 367.077273 185.508765 
L 374.686364 185.508765 
L 374.686364 184.064294 
z
" style="fill:#ff0000;fill-opacity:0.75;stroke:#ff0000;stroke-opacity:0.75;stroke-width:0.5;"/>
    <path clip-path="url(#pcfbad868ec)" d="M 382.295455 185.26802 
L 382.295455 164.804681 
L 389.904545 164.804681 
L 389.904545 185.26802 
z
" style="fill:#008000;fill-opacity:0.75;stroke:#008000;stroke-opacity:0.75;stroke-width:0.5;"/>
    <path clip-path="url(#pcfbad868ec)" d="M 397.513636 164.082446 
L 397.513636 147.591402 
L 405.122727 147.591402 
L 405.122727 164.082446 
z
" style="fill:#008000;fill-opacity:0.75;stroke:#008000;stroke-opacity:0.75;stroke-width:0.5;"/>
    <path clip-path="url(#pcfbad868ec)" d="M 412.731818 147.591402 
L 412.731818 142.295008 
L 420.340909 142.295008 
L 420.340909 147.591402 
z
" style="fill:#008000;fill-opacity:0.75;stroke:#008000;stroke-opacity:0.75;stroke-width:0.5;"/>
    <path clip-path="url(#pcfbad868ec)" d="M 427.95 141.332028 
L 427.95 141.813518 
L 435.559091 141.813518 
L 435.559091 141.332028 
z
" style="fill:#ff0000;fill-opacity:0.75;stroke:#ff0000;stroke-opacity:0.75;stroke-width:0.5;"/>
    <path clip-path="url(#pcfbad868ec)" d="M 443.168182 141.813518 
L 443.168182 143.498734 
L 450.777273 143.498734 
L 450.777273 141.813518 
z
" style="fill:#ff0000;fill-opacity:0.75;stroke:#ff0000;stroke-opacity:0.75;stroke-width:0.5;"/>
    <path clip-path="url(#pcfbad868ec)" d="M 458.386364 143.378362 
L 458.386364 130.739241 
L 465.995455 130.739241 
L 465.995455 143.378362 
z
" style="fill:#008000;fill-opacity:0.75;stroke:#008000;stroke-opacity:0.75;stroke-width:0.5;"/>
    <path clip-path="url(#pcfbad868ec)" d="M 473.604545 130.137378 
L 473.604545 139.285694 
L 481.213636 139.285694 
L 481.213636 130.137378 
z
" style="fill:#ff0000;fill-opacity:0.75;stroke:#ff0000;stroke-opacity:0.75;stroke-width:0.5;"/>
    <path clip-path="url(#pcfbad868ec)" d="M 488.822727 138.924576 
L 488.822727 146.989539 
L 496.431818 146.989539 
L 496.431818 138.924576 
z
" style="fill:#ff0000;fill-opacity:0.75;stroke:#ff0000;stroke-opacity:0.75;stroke-width:0.5;"/>
    <path clip-path="url(#pcfbad868ec)" d="M 504.040909 147.230284 
L 504.040909 137.359733 
L 511.65 137.359733 
L 511.65 147.230284 
z
" style="fill:#008000;fill-opacity:0.75;stroke:#008000;stroke-opacity:0.75;stroke-width:0.5;"/>
    <path clip-path="url(#pcfbad868ec)" d="M 519.259091 136.396752 
L 519.259091 141.933891 
L 526.868182 141.933891 
L 526.868182 136.396752 
z
" style="fill:#ff0000;fill-opacity:0.75;stroke:#ff0000;stroke-opacity:0.75;stroke-width:0.5;"/>
    <path clip-path="url(#pcfbad868ec)" d="M 534.477273 141.933891 
L 534.477273 158.786052 
L 542.086364 158.786052 
L 542.086364 141.933891 
z
" style="fill:#ff0000;fill-opacity:0.75;stroke:#ff0000;stroke-opacity:0.75;stroke-width:0.5;"/>
    <path clip-path="url(#pcfbad868ec)" d="M 549.695455 158.424934 
L 549.695455 149.878481 
L 557.304545 149.878481 
L 557.304545 158.424934 
z
" style="fill:#008000;fill-opacity:0.75;stroke:#008000;stroke-opacity:0.75;stroke-width:0.5;"/>
    <path clip-path="url(#pcfbad868ec)" d="M 564.913636 150.119226 
L 564.913636 234.981896 
L 572.522727 234.981896 
L 572.522727 150.119226 
z
" style="fill:#ff0000;fill-opacity:0.75;stroke:#ff0000;stroke-opacity:0.75;stroke-width:0.5;"/>
    <path clip-path="url(#pcfbad868ec)" d="M 580.131818 234.259661 
L 580.131818 255.565608 
L 587.740909 255.565608 
L 587.740909 234.259661 
z
" style="fill:#ff0000;fill-opacity:0.75;stroke:#ff0000;stroke-opacity:0.75;stroke-width:0.5;"/>
    <path clip-path="url(#pcfbad868ec)" d="M 595.35 255.20449 
L 595.35 201.879436 
L 602.959091 201.879436 
L 602.959091 255.20449 
z
" style="fill:#008000;fill-opacity:0.75;stroke:#008000;stroke-opacity:0.75;stroke-width:0.5;"/>
    <path clip-path="url(#pcfbad868ec)" d="M 610.568182 200.916456 
L 610.568182 413.25369 
L 618.177273 413.25369 
L 618.177273 200.916456 
z
" style="fill:#ff0000;fill-opacity:0.75;stroke:#ff0000;stroke-opacity:0.75;stroke-width:0.5;"/>
    <path clip-path="url(#pcfbad868ec)" d="M 625.786364 413.012945 
L 625.786364 405.068354 
L 633.395455 405.068354 
L 633.395455 413.012945 
z
" style="fill:#008000;fill-opacity:0.75;stroke:#008000;stroke-opacity:0.75;stroke-width:0.5;"/>
    <path clip-path="url(#pcfbad868ec)" d="M 641.004545 405.549845 
L 641.004545 429.142871 
L 648.613636 429.142871 
L 648.613636 405.549845 
z
" style="fill:#ff0000;fill-opacity:0.75;stroke:#ff0000;stroke-opacity:0.75;stroke-width:0.5;"/>
    <path clip-path="url(#pcfbad868ec)" d="M 656.222727 429.624361 
L 656.222727 449.846955 
L 663.831818 449.846955 
L 663.831818 429.624361 
z
" style="fill:#ff0000;fill-opacity:0.75;stroke:#ff0000;stroke-opacity:0.75;stroke-width:0.5;"/>
    <path clip-path="url(#pcfbad868ec)" d="M 671.440909 449.60621 
L 671.440909 472.236255 
L 679.05 472.236255 
L 679.05 449.60621 
z
" style="fill:#ff0000;fill-opacity:0.75;stroke:#ff0000;stroke-opacity:0.75;stroke-width:0.5;"/>
    <path clip-path="url(#pcfbad868ec)" d="M 686.659091 473.680726 
L 686.659091 452.976642 
L 694.268182 452.976642 
L 694.268182 473.680726 
z
" style="fill:#008000;fill-opacity:0.75;stroke:#008000;stroke-opacity:0.75;stroke-width:0.5;"/>
    <path clip-path="url(#pcfbad868ec)" d="M 701.877273 547.589491 
L 701.877273 561.432338 
L 709.486364 561.432338 
L 709.486364 547.589491 
z
" style="fill:#ff0000;fill-opacity:0.75;stroke:#ff0000;stroke-opacity:0.75;stroke-width:0.5;"/>
    <path clip-path="url(#pcfbad868ec)" d="M 717.095455 560.469358 
L 717.095455 548.070982 
L 724.704545 548.070982 
L 724.704545 560.469358 
z
" style="fill:#008000;fill-opacity:0.75;stroke:#008000;stroke-opacity:0.75;stroke-width:0.5;"/>
    <path clip-path="url(#pcfbad868ec)" d="M 732.313636 547.589491 
L 732.313636 544.339432 
L 739.922727 544.339432 
L 739.922727 547.589491 
z
" style="fill:#008000;fill-opacity:0.75;stroke:#008000;stroke-opacity:0.75;stroke-width:0.5;"/>
    <path clip-path="url(#pcfbad868ec)" d="M 747.531818 543.978314 
L 747.531818 518.700072 
L 755.140909 518.700072 
L 755.140909 543.978314 
z
" style="fill:#008000;fill-opacity:0.75;stroke:#008000;stroke-opacity:0.75;stroke-width:0.5;"/>
    <path clip-path="url(#pcfbad868ec)" d="M 762.75 519.422307 
L 762.75 481.023454 
L 770.359091 481.023454 
L 770.359091 519.422307 
z
" style="fill:#008000;fill-opacity:0.75;stroke:#008000;stroke-opacity:0.75;stroke-width:0.5;"/>
    <path clip-path="url(#pcfbad868ec)" d="M 777.968182 481.384571 
L 777.968182 481.866062 
L 785.577273 481.866062 
L 785.577273 481.384571 
z
" style="fill:#ff0000;fill-opacity:0.75;stroke:#ff0000;stroke-opacity:0.75;stroke-width:0.5;"/>
    <path clip-path="url(#pcfbad868ec)" d="M 793.186364 480.662336 
L 793.186364 510.514736 
L 800.795455 510.514736 
L 800.795455 480.662336 
z
" style="fill:#ff0000;fill-opacity:0.75;stroke:#ff0000;stroke-opacity:0.75;stroke-width:0.5;"/>
    <path clip-path="url(#pcfbad868ec)" d="M 808.404545 509.31101 
L 808.404545 515.81113 
L 816.013636 515.81113 
L 816.013636 509.31101 
z
" style="fill:#ff0000;fill-opacity:0.75;stroke:#ff0000;stroke-opacity:0.75;stroke-width:0.5;"/>
    <path clip-path="url(#pcfbad868ec)" d="M 823.622727 516.051875 
L 823.622727 422.040888 
L 831.231818 422.040888 
L 831.231818 516.051875 
z
" style="fill:#008000;fill-opacity:0.75;stroke:#008000;stroke-opacity:0.75;stroke-width:0.5;"/>
    <path clip-path="url(#pcfbad868ec)" d="M 838.840909 420.957535 
L 838.840909 376.90117 
L 846.45 376.90117 
L 846.45 420.957535 
z
" style="fill:#008000;fill-opacity:0.75;stroke:#008000;stroke-opacity:0.75;stroke-width:0.5;"/>
    <path clip-path="url(#pcfbad868ec)" d="M 854.059091 376.90117 
L 854.059091 324.900215 
L 861.668182 324.900215 
L 861.668182 376.90117 
z
" style="fill:#008000;fill-opacity:0.75;stroke:#008000;stroke-opacity:0.75;stroke-width:0.5;"/>
    <path clip-path="url(#pcfbad868ec)" d="M 869.277273 323.455744 
L 869.277273 362.215715 
L 876.886364 362.215715 
L 876.886364 323.455744 
z
" style="fill:#ff0000;fill-opacity:0.75;stroke:#ff0000;stroke-opacity:0.75;stroke-width:0.5;"/>
    <path clip-path="url(#pcfbad868ec)" d="M 884.495455 363.780559 
L 884.495455 364.623167 
L 892.104545 364.623167 
L 892.104545 363.780559 
z
" style="fill:#ff0000;fill-opacity:0.75;stroke:#ff0000;stroke-opacity:0.75;stroke-width:0.5;"/>
    <path clip-path="url(#pcfbad868ec)" d="M 899.713636 365.826893 
L 899.713636 371.845522 
L 907.322727 371.845522 
L 907.322727 365.826893 
z
" style="fill:#ff0000;fill-opacity:0.75;stroke:#ff0000;stroke-opacity:0.75;stroke-width:0.5;"/>
    <path clip-path="url(#pcfbad868ec)" d="M 914.931818 371.484404 
L 914.931818 369.678815 
L 922.540909 369.678815 
L 922.540909 371.484404 
z
" style="fill:#008000;fill-opacity:0.75;stroke:#008000;stroke-opacity:0.75;stroke-width:0.5;"/>
   </g>
   <g id="matplotlib.axis_1">
    <g id="xtick_1">
     <g id="line2d_1">
      <defs>
       <path d="M 0 0 
L 0 3.5 
" id="m64eeaf25de" style="stroke:#000000;stroke-width:0.8;"/>
      </defs>
      <g>
       <use style="stroke:#000000;stroke-width:0.8;" x="173.045455" xlink:href="#m64eeaf25de" y="640.8"/>
      </g>
     </g>
     <g id="text_1">
      <!-- 0 -->
      <defs>
       <path d="M 31.78125 66.40625 
Q 24.171875 66.40625 20.328125 58.90625 
Q 16.5 51.421875 16.5 36.375 
Q 16.5 21.390625 20.328125 13.890625 
Q 24.171875 6.390625 31.78125 6.390625 
Q 39.453125 6.390625 43.28125 13.890625 
Q 47.125 21.390625 47.125 36.375 
Q 47.125 51.421875 43.28125 58.90625 
Q 39.453125 66.40625 31.78125 66.40625 
z
M 31.78125 74.21875 
Q 44.046875 74.21875 50.515625 64.515625 
Q 56.984375 54.828125 56.984375 36.375 
Q 56.984375 17.96875 50.515625 8.265625 
Q 44.046875 -1.421875 31.78125 -1.421875 
Q 19.53125 -1.421875 13.0625 8.265625 
Q 6.59375 17.96875 6.59375 36.375 
Q 6.59375 54.828125 13.0625 64.515625 
Q 19.53125 74.21875 31.78125 74.21875 
z
" id="DejaVuSans-48"/>
      </defs>
      <g transform="translate(169.864205 655.398438)scale(0.1 -0.1)">
       <use xlink:href="#DejaVuSans-48"/>
      </g>
     </g>
    </g>
    <g id="xtick_2">
     <g id="line2d_2">
      <g>
       <use style="stroke:#000000;stroke-width:0.8;" x="325.227273" xlink:href="#m64eeaf25de" y="640.8"/>
      </g>
     </g>
     <g id="text_2">
      <!-- 10 -->
      <defs>
       <path d="M 12.40625 8.296875 
L 28.515625 8.296875 
L 28.515625 63.921875 
L 10.984375 60.40625 
L 10.984375 69.390625 
L 28.421875 72.90625 
L 38.28125 72.90625 
L 38.28125 8.296875 
L 54.390625 8.296875 
L 54.390625 0 
L 12.40625 0 
z
" id="DejaVuSans-49"/>
      </defs>
      <g transform="translate(318.864773 655.398438)scale(0.1 -0.1)">
       <use xlink:href="#DejaVuSans-49"/>
       <use x="63.623047" xlink:href="#DejaVuSans-48"/>
      </g>
     </g>
    </g>
    <g id="xtick_3">
     <g id="line2d_3">
      <g>
       <use style="stroke:#000000;stroke-width:0.8;" x="477.409091" xlink:href="#m64eeaf25de" y="640.8"/>
      </g>
     </g>
     <g id="text_3">
      <!-- 20 -->
      <defs>
       <path d="M 19.1875 8.296875 
L 53.609375 8.296875 
L 53.609375 0 
L 7.328125 0 
L 7.328125 8.296875 
Q 12.9375 14.109375 22.625 23.890625 
Q 32.328125 33.6875 34.8125 36.53125 
Q 39.546875 41.84375 41.421875 45.53125 
Q 43.3125 49.21875 43.3125 52.78125 
Q 43.3125 58.59375 39.234375 62.25 
Q 35.15625 65.921875 28.609375 65.921875 
Q 23.96875 65.921875 18.8125 64.3125 
Q 13.671875 62.703125 7.8125 59.421875 
L 7.8125 69.390625 
Q 13.765625 71.78125 18.9375 73 
Q 24.125 74.21875 28.421875 74.21875 
Q 39.75 74.21875 46.484375 68.546875 
Q 53.21875 62.890625 53.21875 53.421875 
Q 53.21875 48.921875 51.53125 44.890625 
Q 49.859375 40.875 45.40625 35.40625 
Q 44.1875 33.984375 37.640625 27.21875 
Q 31.109375 20.453125 19.1875 8.296875 
z
" id="DejaVuSans-50"/>
      </defs>
      <g transform="translate(471.046591 655.398438)scale(0.1 -0.1)">
       <use xlink:href="#DejaVuSans-50"/>
       <use x="63.623047" xlink:href="#DejaVuSans-48"/>
      </g>
     </g>
    </g>
    <g id="xtick_4">
     <g id="line2d_4">
      <g>
       <use style="stroke:#000000;stroke-width:0.8;" x="629.590909" xlink:href="#m64eeaf25de" y="640.8"/>
      </g>
     </g>
     <g id="text_4">
      <!-- 30 -->
      <defs>
       <path d="M 40.578125 39.3125 
Q 47.65625 37.796875 51.625 33 
Q 55.609375 28.21875 55.609375 21.1875 
Q 55.609375 10.40625 48.1875 4.484375 
Q 40.765625 -1.421875 27.09375 -1.421875 
Q 22.515625 -1.421875 17.65625 -0.515625 
Q 12.796875 0.390625 7.625 2.203125 
L 7.625 11.71875 
Q 11.71875 9.328125 16.59375 8.109375 
Q 21.484375 6.890625 26.8125 6.890625 
Q 36.078125 6.890625 40.9375 10.546875 
Q 45.796875 14.203125 45.796875 21.1875 
Q 45.796875 27.640625 41.28125 31.265625 
Q 36.765625 34.90625 28.71875 34.90625 
L 20.21875 34.90625 
L 20.21875 43.015625 
L 29.109375 43.015625 
Q 36.375 43.015625 40.234375 45.921875 
Q 44.09375 48.828125 44.09375 54.296875 
Q 44.09375 59.90625 40.109375 62.90625 
Q 36.140625 65.921875 28.71875 65.921875 
Q 24.65625 65.921875 20.015625 65.03125 
Q 15.375 64.15625 9.8125 62.3125 
L 9.8125 71.09375 
Q 15.4375 72.65625 20.34375 73.4375 
Q 25.25 74.21875 29.59375 74.21875 
Q 40.828125 74.21875 47.359375 69.109375 
Q 53.90625 64.015625 53.90625 55.328125 
Q 53.90625 49.265625 50.4375 45.09375 
Q 46.96875 40.921875 40.578125 39.3125 
z
" id="DejaVuSans-51"/>
      </defs>
      <g transform="translate(623.228409 655.398438)scale(0.1 -0.1)">
       <use xlink:href="#DejaVuSans-51"/>
       <use x="63.623047" xlink:href="#DejaVuSans-48"/>
      </g>
     </g>
    </g>
    <g id="xtick_5">
     <g id="line2d_5">
      <g>
       <use style="stroke:#000000;stroke-width:0.8;" x="781.772727" xlink:href="#m64eeaf25de" y="640.8"/>
      </g>
     </g>
     <g id="text_5">
      <!-- 40 -->
      <defs>
       <path d="M 37.796875 64.3125 
L 12.890625 25.390625 
L 37.796875 25.390625 
z
M 35.203125 72.90625 
L 47.609375 72.90625 
L 47.609375 25.390625 
L 58.015625 25.390625 
L 58.015625 17.1875 
L 47.609375 17.1875 
L 47.609375 0 
L 37.796875 0 
L 37.796875 17.1875 
L 4.890625 17.1875 
L 4.890625 26.703125 
z
" id="DejaVuSans-52"/>
      </defs>
      <g transform="translate(775.410227 655.398438)scale(0.1 -0.1)">
       <use xlink:href="#DejaVuSans-52"/>
       <use x="63.623047" xlink:href="#DejaVuSans-48"/>
      </g>
     </g>
    </g>
    <g id="xtick_6">
     <g id="line2d_6">
      <g>
       <use style="stroke:#000000;stroke-width:0.8;" x="933.954545" xlink:href="#m64eeaf25de" y="640.8"/>
      </g>
     </g>
     <g id="text_6">
      <!-- 50 -->
      <defs>
       <path d="M 10.796875 72.90625 
L 49.515625 72.90625 
L 49.515625 64.59375 
L 19.828125 64.59375 
L 19.828125 46.734375 
Q 21.96875 47.46875 24.109375 47.828125 
Q 26.265625 48.1875 28.421875 48.1875 
Q 40.625 48.1875 47.75 41.5 
Q 54.890625 34.8125 54.890625 23.390625 
Q 54.890625 11.625 47.5625 5.09375 
Q 40.234375 -1.421875 26.90625 -1.421875 
Q 22.3125 -1.421875 17.546875 -0.640625 
Q 12.796875 0.140625 7.71875 1.703125 
L 7.71875 11.625 
Q 12.109375 9.234375 16.796875 8.0625 
Q 21.484375 6.890625 26.703125 6.890625 
Q 35.15625 6.890625 40.078125 11.328125 
Q 45.015625 15.765625 45.015625 23.390625 
Q 45.015625 31 40.078125 35.4375 
Q 35.15625 39.890625 26.703125 39.890625 
Q 22.75 39.890625 18.8125 39.015625 
Q 14.890625 38.140625 10.796875 36.28125 
z
" id="DejaVuSans-53"/>
      </defs>
      <g transform="translate(927.592045 655.398438)scale(0.1 -0.1)">
       <use xlink:href="#DejaVuSans-53"/>
       <use x="63.623047" xlink:href="#DejaVuSans-48"/>
      </g>
     </g>
    </g>
   </g>
   <g id="matplotlib.axis_2">
    <g id="ytick_1">
     <g id="line2d_7">
      <defs>
       <path d="M 0 0 
L -3.5 0 
" id="m8d20617c57" style="stroke:#000000;stroke-width:0.8;"/>
      </defs>
      <g>
       <use style="stroke:#000000;stroke-width:0.8;" x="135" xlink:href="#m8d20617c57" y="553.367375"/>
      </g>
     </g>
     <g id="text_7">
      <!-- 7400 -->
      <defs>
       <path d="M 8.203125 72.90625 
L 55.078125 72.90625 
L 55.078125 68.703125 
L 28.609375 0 
L 18.3125 0 
L 43.21875 64.59375 
L 8.203125 64.59375 
z
" id="DejaVuSans-55"/>
      </defs>
      <g transform="translate(102.55 557.166594)scale(0.1 -0.1)">
       <use xlink:href="#DejaVuSans-55"/>
       <use x="63.623047" xlink:href="#DejaVuSans-52"/>
       <use x="127.246094" xlink:href="#DejaVuSans-48"/>
       <use x="190.869141" xlink:href="#DejaVuSans-48"/>
      </g>
     </g>
    </g>
    <g id="ytick_2">
     <g id="line2d_8">
      <g>
       <use style="stroke:#000000;stroke-width:0.8;" x="135" xlink:href="#m8d20617c57" y="432.994793"/>
      </g>
     </g>
     <g id="text_8">
      <!-- 7500 -->
      <g transform="translate(102.55 436.794012)scale(0.1 -0.1)">
       <use xlink:href="#DejaVuSans-55"/>
       <use x="63.623047" xlink:href="#DejaVuSans-53"/>
       <use x="127.246094" xlink:href="#DejaVuSans-48"/>
       <use x="190.869141" xlink:href="#DejaVuSans-48"/>
      </g>
     </g>
    </g>
    <g id="ytick_3">
     <g id="line2d_9">
      <g>
       <use style="stroke:#000000;stroke-width:0.8;" x="135" xlink:href="#m8d20617c57" y="312.622212"/>
      </g>
     </g>
     <g id="text_9">
      <!-- 7600 -->
      <defs>
       <path d="M 33.015625 40.375 
Q 26.375 40.375 22.484375 35.828125 
Q 18.609375 31.296875 18.609375 23.390625 
Q 18.609375 15.53125 22.484375 10.953125 
Q 26.375 6.390625 33.015625 6.390625 
Q 39.65625 6.390625 43.53125 10.953125 
Q 47.40625 15.53125 47.40625 23.390625 
Q 47.40625 31.296875 43.53125 35.828125 
Q 39.65625 40.375 33.015625 40.375 
z
M 52.59375 71.296875 
L 52.59375 62.3125 
Q 48.875 64.0625 45.09375 64.984375 
Q 41.3125 65.921875 37.59375 65.921875 
Q 27.828125 65.921875 22.671875 59.328125 
Q 17.53125 52.734375 16.796875 39.40625 
Q 19.671875 43.65625 24.015625 45.921875 
Q 28.375 48.1875 33.59375 48.1875 
Q 44.578125 48.1875 50.953125 41.515625 
Q 57.328125 34.859375 57.328125 23.390625 
Q 57.328125 12.15625 50.6875 5.359375 
Q 44.046875 -1.421875 33.015625 -1.421875 
Q 20.359375 -1.421875 13.671875 8.265625 
Q 6.984375 17.96875 6.984375 36.375 
Q 6.984375 53.65625 15.1875 63.9375 
Q 23.390625 74.21875 37.203125 74.21875 
Q 40.921875 74.21875 44.703125 73.484375 
Q 48.484375 72.75 52.59375 71.296875 
z
" id="DejaVuSans-54"/>
      </defs>
      <g transform="translate(102.55 316.42143)scale(0.1 -0.1)">
       <use xlink:href="#DejaVuSans-55"/>
       <use x="63.623047" xlink:href="#DejaVuSans-54"/>
       <use x="127.246094" xlink:href="#DejaVuSans-48"/>
       <use x="190.869141" xlink:href="#DejaVuSans-48"/>
      </g>
     </g>
    </g>
    <g id="ytick_4">
     <g id="line2d_10">
      <g>
       <use style="stroke:#000000;stroke-width:0.8;" x="135" xlink:href="#m8d20617c57" y="192.24963"/>
      </g>
     </g>
     <g id="text_10">
      <!-- 7700 -->
      <g transform="translate(102.55 196.048849)scale(0.1 -0.1)">
       <use xlink:href="#DejaVuSans-55"/>
       <use x="63.623047" xlink:href="#DejaVuSans-55"/>
       <use x="127.246094" xlink:href="#DejaVuSans-48"/>
       <use x="190.869141" xlink:href="#DejaVuSans-48"/>
      </g>
     </g>
    </g>
   </g>
   <g id="LineCollection_1">
    <path clip-path="url(#pcfbad868ec)" d="M 173.045455 191.768139 
L 173.045455 157.461954 
" style="fill:none;stroke:#ff0000;stroke-opacity:0.75;stroke-width:0.5;"/>
    <path clip-path="url(#pcfbad868ec)" d="M 188.263636 180.934607 
L 188.263636 161.073131 
" style="fill:none;stroke:#008000;stroke-opacity:0.75;stroke-width:0.5;"/>
    <path clip-path="url(#pcfbad868ec)" d="M 203.481818 169.499212 
L 203.481818 126.165082 
" style="fill:none;stroke:#008000;stroke-opacity:0.75;stroke-width:0.5;"/>
    <path clip-path="url(#pcfbad868ec)" d="M 218.7 138.322713 
L 218.7 114.488942 
" style="fill:none;stroke:#008000;stroke-opacity:0.75;stroke-width:0.5;"/>
    <path clip-path="url(#pcfbad868ec)" d="M 233.918182 139.406066 
L 233.918182 111.6 
" style="fill:none;stroke:#ff0000;stroke-opacity:0.75;stroke-width:0.5;"/>
    <path clip-path="url(#pcfbad868ec)" d="M 249.136364 255.324863 
L 249.136364 122.433532 
" style="fill:none;stroke:#ff0000;stroke-opacity:0.75;stroke-width:0.5;"/>
    <path clip-path="url(#pcfbad868ec)" d="M 264.354545 250.750705 
L 264.354545 198.749749 
" style="fill:none;stroke:#008000;stroke-opacity:0.75;stroke-width:0.5;"/>
    <path clip-path="url(#pcfbad868ec)" d="M 279.572727 221.139049 
L 279.572727 186.231001 
" style="fill:none;stroke:#008000;stroke-opacity:0.75;stroke-width:0.5;"/>
    <path clip-path="url(#pcfbad868ec)" d="M 294.790909 198.749749 
L 294.790909 163.841701 
" style="fill:none;stroke:#008000;stroke-opacity:0.75;stroke-width:0.5;"/>
    <path clip-path="url(#pcfbad868ec)" d="M 310.009091 185.26802 
L 310.009091 156.860091 
" style="fill:none;stroke:#008000;stroke-opacity:0.75;stroke-width:0.5;"/>
    <path clip-path="url(#pcfbad868ec)" d="M 325.227273 187.193981 
L 325.227273 147.95252 
" style="fill:none;stroke:#ff0000;stroke-opacity:0.75;stroke-width:0.5;"/>
    <path clip-path="url(#pcfbad868ec)" d="M 340.445455 194.295964 
L 340.445455 178.647528 
" style="fill:none;stroke:#ff0000;stroke-opacity:0.75;stroke-width:0.5;"/>
    <path clip-path="url(#pcfbad868ec)" d="M 355.663636 188.51808 
L 355.663636 177.564175 
" style="fill:none;stroke:#008000;stroke-opacity:0.75;stroke-width:0.5;"/>
    <path clip-path="url(#pcfbad868ec)" d="M 370.881818 197.064533 
L 370.881818 182.258706 
" style="fill:none;stroke:#ff0000;stroke-opacity:0.75;stroke-width:0.5;"/>
    <path clip-path="url(#pcfbad868ec)" d="M 386.1 190.323668 
L 386.1 162.036112 
" style="fill:none;stroke:#008000;stroke-opacity:0.75;stroke-width:0.5;"/>
    <path clip-path="url(#pcfbad868ec)" d="M 401.318182 169.619584 
L 401.318182 141.813518 
" style="fill:none;stroke:#008000;stroke-opacity:0.75;stroke-width:0.5;"/>
    <path clip-path="url(#pcfbad868ec)" d="M 416.536364 153.369286 
L 416.536364 140.97091 
" style="fill:none;stroke:#008000;stroke-opacity:0.75;stroke-width:0.5;"/>
    <path clip-path="url(#pcfbad868ec)" d="M 431.754545 145.545068 
L 431.754545 137.600478 
" style="fill:none;stroke:#ff0000;stroke-opacity:0.75;stroke-width:0.5;"/>
    <path clip-path="url(#pcfbad868ec)" d="M 446.972727 147.591402 
L 446.972727 138.563458 
" style="fill:none;stroke:#ff0000;stroke-opacity:0.75;stroke-width:0.5;"/>
    <path clip-path="url(#pcfbad868ec)" d="M 462.190909 144.341342 
L 462.190909 130.739241 
" style="fill:none;stroke:#008000;stroke-opacity:0.75;stroke-width:0.5;"/>
    <path clip-path="url(#pcfbad868ec)" d="M 477.409091 139.285694 
L 477.409091 125.442847 
" style="fill:none;stroke:#ff0000;stroke-opacity:0.75;stroke-width:0.5;"/>
    <path clip-path="url(#pcfbad868ec)" d="M 492.627273 149.396991 
L 492.627273 126.285455 
" style="fill:none;stroke:#ff0000;stroke-opacity:0.75;stroke-width:0.5;"/>
    <path clip-path="url(#pcfbad868ec)" d="M 507.845455 150.119226 
L 507.845455 129.29477 
" style="fill:none;stroke:#008000;stroke-opacity:0.75;stroke-width:0.5;"/>
    <path clip-path="url(#pcfbad868ec)" d="M 523.063636 147.350657 
L 523.063636 130.498495 
" style="fill:none;stroke:#ff0000;stroke-opacity:0.75;stroke-width:0.5;"/>
    <path clip-path="url(#pcfbad868ec)" d="M 538.281818 167.452878 
L 538.281818 137.118987 
" style="fill:none;stroke:#ff0000;stroke-opacity:0.75;stroke-width:0.5;"/>
    <path clip-path="url(#pcfbad868ec)" d="M 553.5 161.193504 
L 553.5 140.850537 
" style="fill:none;stroke:#008000;stroke-opacity:0.75;stroke-width:0.5;"/>
    <path clip-path="url(#pcfbad868ec)" d="M 568.718182 271.575161 
L 568.718182 150.119226 
" style="fill:none;stroke:#ff0000;stroke-opacity:0.75;stroke-width:0.5;"/>
    <path clip-path="url(#pcfbad868ec)" d="M 583.936364 286.621734 
L 583.936364 231.250346 
" style="fill:none;stroke:#ff0000;stroke-opacity:0.75;stroke-width:0.5;"/>
    <path clip-path="url(#pcfbad868ec)" d="M 599.154545 271.936279 
L 599.154545 161.915739 
" style="fill:none;stroke:#008000;stroke-opacity:0.75;stroke-width:0.5;"/>
    <path clip-path="url(#pcfbad868ec)" d="M 614.372727 413.975925 
L 614.372727 191.286649 
" style="fill:none;stroke:#ff0000;stroke-opacity:0.75;stroke-width:0.5;"/>
    <path clip-path="url(#pcfbad868ec)" d="M 629.590909 425.290948 
L 629.590909 380.993838 
" style="fill:none;stroke:#008000;stroke-opacity:0.75;stroke-width:0.5;"/>
    <path clip-path="url(#pcfbad868ec)" d="M 644.809091 456.347074 
L 644.809091 405.549845 
" style="fill:none;stroke:#ff0000;stroke-opacity:0.75;stroke-width:0.5;"/>
    <path clip-path="url(#pcfbad868ec)" d="M 660.027273 468.865823 
L 660.027273 428.902126 
" style="fill:none;stroke:#ff0000;stroke-opacity:0.75;stroke-width:0.5;"/>
    <path clip-path="url(#pcfbad868ec)" d="M 675.245455 503.533126 
L 675.245455 429.865106 
" style="fill:none;stroke:#ff0000;stroke-opacity:0.75;stroke-width:0.5;"/>
    <path clip-path="url(#pcfbad868ec)" d="M 690.463636 473.680726 
L 690.463636 423.846477 
" style="fill:none;stroke:#008000;stroke-opacity:0.75;stroke-width:0.5;"/>
    <path clip-path="url(#pcfbad868ec)" d="M 705.681818 615.6 
L 705.681818 542.774588 
" style="fill:none;stroke:#ff0000;stroke-opacity:0.75;stroke-width:0.5;"/>
    <path clip-path="url(#pcfbad868ec)" d="M 720.9 572.867733 
L 720.9 540.607882 
" style="fill:none;stroke:#008000;stroke-opacity:0.75;stroke-width:0.5;"/>
    <path clip-path="url(#pcfbad868ec)" d="M 736.118182 556.617435 
L 736.118182 506.422068 
" style="fill:none;stroke:#008000;stroke-opacity:0.75;stroke-width:0.5;"/>
    <path clip-path="url(#pcfbad868ec)" d="M 751.336364 547.348746 
L 751.336364 507.144304 
" style="fill:none;stroke:#008000;stroke-opacity:0.75;stroke-width:0.5;"/>
    <path clip-path="url(#pcfbad868ec)" d="M 766.554545 525.561309 
L 766.554545 474.402962 
" style="fill:none;stroke:#008000;stroke-opacity:0.75;stroke-width:0.5;"/>
    <path clip-path="url(#pcfbad868ec)" d="M 781.772727 496.310771 
L 781.772727 471.393647 
" style="fill:none;stroke:#ff0000;stroke-opacity:0.75;stroke-width:0.5;"/>
    <path clip-path="url(#pcfbad868ec)" d="M 796.990909 513.403678 
L 796.990909 478.736374 
" style="fill:none;stroke:#ff0000;stroke-opacity:0.75;stroke-width:0.5;"/>
    <path clip-path="url(#pcfbad868ec)" d="M 812.209091 526.163172 
L 812.209091 506.422068 
" style="fill:none;stroke:#ff0000;stroke-opacity:0.75;stroke-width:0.5;"/>
    <path clip-path="url(#pcfbad868ec)" d="M 827.427273 518.098209 
L 827.427273 410.364748 
" style="fill:none;stroke:#008000;stroke-opacity:0.75;stroke-width:0.5;"/>
    <path clip-path="url(#pcfbad868ec)" d="M 842.645455 424.087222 
L 842.645455 326.585431 
" style="fill:none;stroke:#008000;stroke-opacity:0.75;stroke-width:0.5;"/>
    <path clip-path="url(#pcfbad868ec)" d="M 857.863636 393.994077 
L 857.863636 317.316742 
" style="fill:none;stroke:#008000;stroke-opacity:0.75;stroke-width:0.5;"/>
    <path clip-path="url(#pcfbad868ec)" d="M 873.081818 388.577311 
L 873.081818 289.751421 
" style="fill:none;stroke:#ff0000;stroke-opacity:0.75;stroke-width:0.5;"/>
    <path clip-path="url(#pcfbad868ec)" d="M 888.3 376.90117 
L 888.3 329.594746 
" style="fill:none;stroke:#ff0000;stroke-opacity:0.75;stroke-width:0.5;"/>
    <path clip-path="url(#pcfbad868ec)" d="M 903.518182 376.540053 
L 903.518182 342.956102 
" style="fill:none;stroke:#ff0000;stroke-opacity:0.75;stroke-width:0.5;"/>
    <path clip-path="url(#pcfbad868ec)" d="M 918.736364 377.141915 
L 918.736364 369.197325 
" style="fill:none;stroke:#008000;stroke-opacity:0.75;stroke-width:0.5;"/>
   </g>
   <g id="patch_3">
    <path d="M 135 640.8 
L 135 86.4 
" style="fill:none;stroke:#000000;stroke-linecap:square;stroke-linejoin:miter;stroke-width:0.8;"/>
   </g>
   <g id="patch_4">
    <path d="M 972 640.8 
L 972 86.4 
" style="fill:none;stroke:#000000;stroke-linecap:square;stroke-linejoin:miter;stroke-width:0.8;"/>
   </g>
   <g id="patch_5">
    <path d="M 135 640.8 
L 972 640.8 
" style="fill:none;stroke:#000000;stroke-linecap:square;stroke-linejoin:miter;stroke-width:0.8;"/>
   </g>
   <g id="patch_6">
    <path d="M 135 86.4 
L 972 86.4 
" style="fill:none;stroke:#000000;stroke-linecap:square;stroke-linejoin:miter;stroke-width:0.8;"/>
   </g>
   <g id="text_11">
    <!-- NAS100_USD with 60 Minutes Candle -->
    <defs>
     <path d="M 9.8125 72.90625 
L 23.09375 72.90625 
L 55.421875 11.921875 
L 55.421875 72.90625 
L 64.984375 72.90625 
L 64.984375 0 
L 51.703125 0 
L 19.390625 60.984375 
L 19.390625 0 
L 9.8125 0 
z
" id="DejaVuSans-78"/>
     <path d="M 34.1875 63.1875 
L 20.796875 26.90625 
L 47.609375 26.90625 
z
M 28.609375 72.90625 
L 39.796875 72.90625 
L 67.578125 0 
L 57.328125 0 
L 50.6875 18.703125 
L 17.828125 18.703125 
L 11.1875 0 
L 0.78125 0 
z
" id="DejaVuSans-65"/>
     <path d="M 53.515625 70.515625 
L 53.515625 60.890625 
Q 47.90625 63.578125 42.921875 64.890625 
Q 37.9375 66.21875 33.296875 66.21875 
Q 25.25 66.21875 20.875 63.09375 
Q 16.5 59.96875 16.5 54.203125 
Q 16.5 49.359375 19.40625 46.890625 
Q 22.3125 44.4375 30.421875 42.921875 
L 36.375 41.703125 
Q 47.40625 39.59375 52.65625 34.296875 
Q 57.90625 29 57.90625 20.125 
Q 57.90625 9.515625 50.796875 4.046875 
Q 43.703125 -1.421875 29.984375 -1.421875 
Q 24.8125 -1.421875 18.96875 -0.25 
Q 13.140625 0.921875 6.890625 3.21875 
L 6.890625 13.375 
Q 12.890625 10.015625 18.65625 8.296875 
Q 24.421875 6.59375 29.984375 6.59375 
Q 38.421875 6.59375 43.015625 9.90625 
Q 47.609375 13.234375 47.609375 19.390625 
Q 47.609375 24.75 44.3125 27.78125 
Q 41.015625 30.8125 33.5 32.328125 
L 27.484375 33.5 
Q 16.453125 35.6875 11.515625 40.375 
Q 6.59375 45.0625 6.59375 53.421875 
Q 6.59375 63.09375 13.40625 68.65625 
Q 20.21875 74.21875 32.171875 74.21875 
Q 37.3125 74.21875 42.625 73.28125 
Q 47.953125 72.359375 53.515625 70.515625 
z
" id="DejaVuSans-83"/>
     <path d="M 50.984375 -16.609375 
L 50.984375 -23.578125 
L -0.984375 -23.578125 
L -0.984375 -16.609375 
z
" id="DejaVuSans-95"/>
     <path d="M 8.6875 72.90625 
L 18.609375 72.90625 
L 18.609375 28.609375 
Q 18.609375 16.890625 22.84375 11.734375 
Q 27.09375 6.59375 36.625 6.59375 
Q 46.09375 6.59375 50.34375 11.734375 
Q 54.59375 16.890625 54.59375 28.609375 
L 54.59375 72.90625 
L 64.5 72.90625 
L 64.5 27.390625 
Q 64.5 13.140625 57.4375 5.859375 
Q 50.390625 -1.421875 36.625 -1.421875 
Q 22.796875 -1.421875 15.734375 5.859375 
Q 8.6875 13.140625 8.6875 27.390625 
z
" id="DejaVuSans-85"/>
     <path d="M 19.671875 64.796875 
L 19.671875 8.109375 
L 31.59375 8.109375 
Q 46.6875 8.109375 53.6875 14.9375 
Q 60.6875 21.78125 60.6875 36.53125 
Q 60.6875 51.171875 53.6875 57.984375 
Q 46.6875 64.796875 31.59375 64.796875 
z
M 9.8125 72.90625 
L 30.078125 72.90625 
Q 51.265625 72.90625 61.171875 64.09375 
Q 71.09375 55.28125 71.09375 36.53125 
Q 71.09375 17.671875 61.125 8.828125 
Q 51.171875 0 30.078125 0 
L 9.8125 0 
z
" id="DejaVuSans-68"/>
     <path id="DejaVuSans-32"/>
     <path d="M 4.203125 54.6875 
L 13.1875 54.6875 
L 24.421875 12.015625 
L 35.59375 54.6875 
L 46.1875 54.6875 
L 57.421875 12.015625 
L 68.609375 54.6875 
L 77.59375 54.6875 
L 63.28125 0 
L 52.6875 0 
L 40.921875 44.828125 
L 29.109375 0 
L 18.5 0 
z
" id="DejaVuSans-119"/>
     <path d="M 9.421875 54.6875 
L 18.40625 54.6875 
L 18.40625 0 
L 9.421875 0 
z
M 9.421875 75.984375 
L 18.40625 75.984375 
L 18.40625 64.59375 
L 9.421875 64.59375 
z
" id="DejaVuSans-105"/>
     <path d="M 18.3125 70.21875 
L 18.3125 54.6875 
L 36.8125 54.6875 
L 36.8125 47.703125 
L 18.3125 47.703125 
L 18.3125 18.015625 
Q 18.3125 11.328125 20.140625 9.421875 
Q 21.96875 7.515625 27.59375 7.515625 
L 36.8125 7.515625 
L 36.8125 0 
L 27.59375 0 
Q 17.1875 0 13.234375 3.875 
Q 9.28125 7.765625 9.28125 18.015625 
L 9.28125 47.703125 
L 2.6875 47.703125 
L 2.6875 54.6875 
L 9.28125 54.6875 
L 9.28125 70.21875 
z
" id="DejaVuSans-116"/>
     <path d="M 54.890625 33.015625 
L 54.890625 0 
L 45.90625 0 
L 45.90625 32.71875 
Q 45.90625 40.484375 42.875 44.328125 
Q 39.84375 48.1875 33.796875 48.1875 
Q 26.515625 48.1875 22.3125 43.546875 
Q 18.109375 38.921875 18.109375 30.90625 
L 18.109375 0 
L 9.078125 0 
L 9.078125 75.984375 
L 18.109375 75.984375 
L 18.109375 46.1875 
Q 21.34375 51.125 25.703125 53.5625 
Q 30.078125 56 35.796875 56 
Q 45.21875 56 50.046875 50.171875 
Q 54.890625 44.34375 54.890625 33.015625 
z
" id="DejaVuSans-104"/>
     <path d="M 9.8125 72.90625 
L 24.515625 72.90625 
L 43.109375 23.296875 
L 61.8125 72.90625 
L 76.515625 72.90625 
L 76.515625 0 
L 66.890625 0 
L 66.890625 64.015625 
L 48.09375 14.015625 
L 38.1875 14.015625 
L 19.390625 64.015625 
L 19.390625 0 
L 9.8125 0 
z
" id="DejaVuSans-77"/>
     <path d="M 54.890625 33.015625 
L 54.890625 0 
L 45.90625 0 
L 45.90625 32.71875 
Q 45.90625 40.484375 42.875 44.328125 
Q 39.84375 48.1875 33.796875 48.1875 
Q 26.515625 48.1875 22.3125 43.546875 
Q 18.109375 38.921875 18.109375 30.90625 
L 18.109375 0 
L 9.078125 0 
L 9.078125 54.6875 
L 18.109375 54.6875 
L 18.109375 46.1875 
Q 21.34375 51.125 25.703125 53.5625 
Q 30.078125 56 35.796875 56 
Q 45.21875 56 50.046875 50.171875 
Q 54.890625 44.34375 54.890625 33.015625 
z
" id="DejaVuSans-110"/>
     <path d="M 8.5 21.578125 
L 8.5 54.6875 
L 17.484375 54.6875 
L 17.484375 21.921875 
Q 17.484375 14.15625 20.5 10.265625 
Q 23.53125 6.390625 29.59375 6.390625 
Q 36.859375 6.390625 41.078125 11.03125 
Q 45.3125 15.671875 45.3125 23.6875 
L 45.3125 54.6875 
L 54.296875 54.6875 
L 54.296875 0 
L 45.3125 0 
L 45.3125 8.40625 
Q 42.046875 3.421875 37.71875 1 
Q 33.40625 -1.421875 27.6875 -1.421875 
Q 18.265625 -1.421875 13.375 4.4375 
Q 8.5 10.296875 8.5 21.578125 
z
M 31.109375 56 
z
" id="DejaVuSans-117"/>
     <path d="M 56.203125 29.59375 
L 56.203125 25.203125 
L 14.890625 25.203125 
Q 15.484375 15.921875 20.484375 11.0625 
Q 25.484375 6.203125 34.421875 6.203125 
Q 39.59375 6.203125 44.453125 7.46875 
Q 49.3125 8.734375 54.109375 11.28125 
L 54.109375 2.78125 
Q 49.265625 0.734375 44.1875 -0.34375 
Q 39.109375 -1.421875 33.890625 -1.421875 
Q 20.796875 -1.421875 13.15625 6.1875 
Q 5.515625 13.8125 5.515625 26.8125 
Q 5.515625 40.234375 12.765625 48.109375 
Q 20.015625 56 32.328125 56 
Q 43.359375 56 49.78125 48.890625 
Q 56.203125 41.796875 56.203125 29.59375 
z
M 47.21875 32.234375 
Q 47.125 39.59375 43.09375 43.984375 
Q 39.0625 48.390625 32.421875 48.390625 
Q 24.90625 48.390625 20.390625 44.140625 
Q 15.875 39.890625 15.1875 32.171875 
z
" id="DejaVuSans-101"/>
     <path d="M 44.28125 53.078125 
L 44.28125 44.578125 
Q 40.484375 46.53125 36.375 47.5 
Q 32.28125 48.484375 27.875 48.484375 
Q 21.1875 48.484375 17.84375 46.4375 
Q 14.5 44.390625 14.5 40.28125 
Q 14.5 37.15625 16.890625 35.375 
Q 19.28125 33.59375 26.515625 31.984375 
L 29.59375 31.296875 
Q 39.15625 29.25 43.1875 25.515625 
Q 47.21875 21.78125 47.21875 15.09375 
Q 47.21875 7.46875 41.1875 3.015625 
Q 35.15625 -1.421875 24.609375 -1.421875 
Q 20.21875 -1.421875 15.453125 -0.5625 
Q 10.6875 0.296875 5.421875 2 
L 5.421875 11.28125 
Q 10.40625 8.6875 15.234375 7.390625 
Q 20.0625 6.109375 24.8125 6.109375 
Q 31.15625 6.109375 34.5625 8.28125 
Q 37.984375 10.453125 37.984375 14.40625 
Q 37.984375 18.0625 35.515625 20.015625 
Q 33.0625 21.96875 24.703125 23.78125 
L 21.578125 24.515625 
Q 13.234375 26.265625 9.515625 29.90625 
Q 5.8125 33.546875 5.8125 39.890625 
Q 5.8125 47.609375 11.28125 51.796875 
Q 16.75 56 26.8125 56 
Q 31.78125 56 36.171875 55.265625 
Q 40.578125 54.546875 44.28125 53.078125 
z
" id="DejaVuSans-115"/>
     <path d="M 64.40625 67.28125 
L 64.40625 56.890625 
Q 59.421875 61.53125 53.78125 63.8125 
Q 48.140625 66.109375 41.796875 66.109375 
Q 29.296875 66.109375 22.65625 58.46875 
Q 16.015625 50.828125 16.015625 36.375 
Q 16.015625 21.96875 22.65625 14.328125 
Q 29.296875 6.6875 41.796875 6.6875 
Q 48.140625 6.6875 53.78125 8.984375 
Q 59.421875 11.28125 64.40625 15.921875 
L 64.40625 5.609375 
Q 59.234375 2.09375 53.4375 0.328125 
Q 47.65625 -1.421875 41.21875 -1.421875 
Q 24.65625 -1.421875 15.125 8.703125 
Q 5.609375 18.84375 5.609375 36.375 
Q 5.609375 53.953125 15.125 64.078125 
Q 24.65625 74.21875 41.21875 74.21875 
Q 47.75 74.21875 53.53125 72.484375 
Q 59.328125 70.75 64.40625 67.28125 
z
" id="DejaVuSans-67"/>
     <path d="M 34.28125 27.484375 
Q 23.390625 27.484375 19.1875 25 
Q 14.984375 22.515625 14.984375 16.5 
Q 14.984375 11.71875 18.140625 8.90625 
Q 21.296875 6.109375 26.703125 6.109375 
Q 34.1875 6.109375 38.703125 11.40625 
Q 43.21875 16.703125 43.21875 25.484375 
L 43.21875 27.484375 
z
M 52.203125 31.203125 
L 52.203125 0 
L 43.21875 0 
L 43.21875 8.296875 
Q 40.140625 3.328125 35.546875 0.953125 
Q 30.953125 -1.421875 24.3125 -1.421875 
Q 15.921875 -1.421875 10.953125 3.296875 
Q 6 8.015625 6 15.921875 
Q 6 25.140625 12.171875 29.828125 
Q 18.359375 34.515625 30.609375 34.515625 
L 43.21875 34.515625 
L 43.21875 35.40625 
Q 43.21875 41.609375 39.140625 45 
Q 35.0625 48.390625 27.6875 48.390625 
Q 23 48.390625 18.546875 47.265625 
Q 14.109375 46.140625 10.015625 43.890625 
L 10.015625 52.203125 
Q 14.9375 54.109375 19.578125 55.046875 
Q 24.21875 56 28.609375 56 
Q 40.484375 56 46.34375 49.84375 
Q 52.203125 43.703125 52.203125 31.203125 
z
" id="DejaVuSans-97"/>
     <path d="M 45.40625 46.390625 
L 45.40625 75.984375 
L 54.390625 75.984375 
L 54.390625 0 
L 45.40625 0 
L 45.40625 8.203125 
Q 42.578125 3.328125 38.25 0.953125 
Q 33.9375 -1.421875 27.875 -1.421875 
Q 17.96875 -1.421875 11.734375 6.484375 
Q 5.515625 14.40625 5.515625 27.296875 
Q 5.515625 40.1875 11.734375 48.09375 
Q 17.96875 56 27.875 56 
Q 33.9375 56 38.25 53.625 
Q 42.578125 51.265625 45.40625 46.390625 
z
M 14.796875 27.296875 
Q 14.796875 17.390625 18.875 11.75 
Q 22.953125 6.109375 30.078125 6.109375 
Q 37.203125 6.109375 41.296875 11.75 
Q 45.40625 17.390625 45.40625 27.296875 
Q 45.40625 37.203125 41.296875 42.84375 
Q 37.203125 48.484375 30.078125 48.484375 
Q 22.953125 48.484375 18.875 42.84375 
Q 14.796875 37.203125 14.796875 27.296875 
z
" id="DejaVuSans-100"/>
     <path d="M 9.421875 75.984375 
L 18.40625 75.984375 
L 18.40625 0 
L 9.421875 0 
z
" id="DejaVuSans-108"/>
    </defs>
    <g transform="translate(385.318125 80.4)scale(0.18 -0.18)">
     <use xlink:href="#DejaVuSans-78"/>
     <use x="74.804688" xlink:href="#DejaVuSans-65"/>
     <use x="143.212891" xlink:href="#DejaVuSans-83"/>
     <use x="206.689453" xlink:href="#DejaVuSans-49"/>
     <use x="270.3125" xlink:href="#DejaVuSans-48"/>
     <use x="333.935547" xlink:href="#DejaVuSans-48"/>
     <use x="397.558594" xlink:href="#DejaVuSans-95"/>
     <use x="447.558594" xlink:href="#DejaVuSans-85"/>
     <use x="520.751953" xlink:href="#DejaVuSans-83"/>
     <use x="584.228516" xlink:href="#DejaVuSans-68"/>
     <use x="661.230469" xlink:href="#DejaVuSans-32"/>
     <use x="693.017578" xlink:href="#DejaVuSans-119"/>
     <use x="774.804688" xlink:href="#DejaVuSans-105"/>
     <use x="802.587891" xlink:href="#DejaVuSans-116"/>
     <use x="841.796875" xlink:href="#DejaVuSans-104"/>
     <use x="905.175781" xlink:href="#DejaVuSans-32"/>
     <use x="936.962891" xlink:href="#DejaVuSans-54"/>
     <use x="1000.585938" xlink:href="#DejaVuSans-48"/>
     <use x="1064.208984" xlink:href="#DejaVuSans-32"/>
     <use x="1095.996094" xlink:href="#DejaVuSans-77"/>
     <use x="1182.275391" xlink:href="#DejaVuSans-105"/>
     <use x="1210.058594" xlink:href="#DejaVuSans-110"/>
     <use x="1273.4375" xlink:href="#DejaVuSans-117"/>
     <use x="1336.816406" xlink:href="#DejaVuSans-116"/>
     <use x="1376.025391" xlink:href="#DejaVuSans-101"/>
     <use x="1437.548828" xlink:href="#DejaVuSans-115"/>
     <use x="1489.648438" xlink:href="#DejaVuSans-32"/>
     <use x="1521.435547" xlink:href="#DejaVuSans-67"/>
     <use x="1591.259766" xlink:href="#DejaVuSans-97"/>
     <use x="1652.539062" xlink:href="#DejaVuSans-110"/>
     <use x="1715.917969" xlink:href="#DejaVuSans-100"/>
     <use x="1779.394531" xlink:href="#DejaVuSans-108"/>
     <use x="1807.177734" xlink:href="#DejaVuSans-101"/>
    </g>
   </g>
  </g>
 </g>
 <defs>
  <clipPath id="pcfbad868ec">
   <rect height="554.4" width="837" x="135" y="86.4"/>
  </clipPath>
 </defs>
</svg>
